<mxfile host="app.diagrams.net" modified="2024-02-29T08:41:37.014Z" agent="Mozilla/5.0 (Windows NT 10.0; Win64; x64) AppleWebKit/537.36 (KHTML, like Gecko) Chrome/122.0.0.0 Safari/537.36 Edg/122.0.0.0" etag="GnPJUAemxcOBWoRC_s-p" version="23.1.7" type="github">
  <diagram name="第 1 页" id="YybZSWfKgdwwyVnCC98R">
    <mxGraphModel dx="2026" dy="2280" grid="1" gridSize="10" guides="1" tooltips="1" connect="1" arrows="1" fold="1" page="1" pageScale="1" pageWidth="827" pageHeight="1169" math="0" shadow="0">
      <root>
        <mxCell id="0" />
        <mxCell id="1" parent="0" />
        <mxCell id="C1Iz2HgUC4OXzYCC7fI--1" value="&lt;font face=&quot;宋体&quot;&gt;&lt;span style=&quot;font-size: 26px;&quot;&gt;物流配送路径规划系统&lt;br&gt;&lt;/span&gt;&lt;/font&gt;" style="rounded=1;whiteSpace=wrap;html=1;fillColor=#dae8fc;strokeColor=#6c8ebf;" vertex="1" parent="1">
          <mxGeometry x="70" y="110" width="40" height="390" as="geometry" />
        </mxCell>
        <mxCell id="C1Iz2HgUC4OXzYCC7fI--11" value="&lt;font face=&quot;宋体&quot;&gt;&lt;span style=&quot;font-size: 26px;&quot;&gt;服务器端&lt;br&gt;&lt;/span&gt;&lt;/font&gt;" style="rounded=1;whiteSpace=wrap;html=1;fillColor=#f8cecc;strokeColor=none;" vertex="1" parent="1">
          <mxGeometry x="181" y="19" width="149" height="60" as="geometry" />
        </mxCell>
        <mxCell id="C1Iz2HgUC4OXzYCC7fI--12" value="&lt;font face=&quot;宋体&quot;&gt;&lt;span style=&quot;font-size: 26px;&quot;&gt;调试端口&lt;br&gt;&lt;/span&gt;&lt;/font&gt;" style="rounded=1;whiteSpace=wrap;html=1;fillColor=#FFDE9C;strokeColor=none;" vertex="1" parent="1">
          <mxGeometry x="181" y="267" width="149" height="60" as="geometry" />
        </mxCell>
        <mxCell id="C1Iz2HgUC4OXzYCC7fI--13" value="&lt;font face=&quot;宋体&quot;&gt;&lt;span style=&quot;font-size: 26px;&quot;&gt;浏览器端&lt;br&gt;&lt;/span&gt;&lt;/font&gt;" style="rounded=1;whiteSpace=wrap;html=1;fillColor=#B3FF66;strokeColor=none;" vertex="1" parent="1">
          <mxGeometry x="181" y="449" width="149" height="60" as="geometry" />
        </mxCell>
        <mxCell id="C1Iz2HgUC4OXzYCC7fI--15" value="" style="endArrow=none;html=1;rounded=0;edgeStyle=orthogonalEdgeStyle;exitX=1;exitY=0.5;exitDx=0;exitDy=0;entryX=0;entryY=0.5;entryDx=0;entryDy=0;curved=1;endSize=6;strokeWidth=6;fillColor=#f8cecc;strokeColor=#FF9999;" edge="1" parent="1" source="C1Iz2HgUC4OXzYCC7fI--1" target="C1Iz2HgUC4OXzYCC7fI--11">
          <mxGeometry width="50" height="50" relative="1" as="geometry">
            <mxPoint x="650" y="280" as="sourcePoint" />
            <mxPoint x="700" y="230" as="targetPoint" />
            <Array as="points">
              <mxPoint x="140" y="305" />
              <mxPoint x="140" y="49" />
            </Array>
          </mxGeometry>
        </mxCell>
        <mxCell id="C1Iz2HgUC4OXzYCC7fI--16" value="" style="endArrow=none;html=1;rounded=0;edgeStyle=orthogonalEdgeStyle;exitX=1;exitY=0.5;exitDx=0;exitDy=0;entryX=0;entryY=0.5;entryDx=0;entryDy=0;curved=1;fillColor=#d5e8d4;strokeColor=#cbff94;strokeWidth=8;" edge="1" parent="1" source="C1Iz2HgUC4OXzYCC7fI--1" target="C1Iz2HgUC4OXzYCC7fI--13">
          <mxGeometry width="50" height="50" relative="1" as="geometry">
            <mxPoint x="120" y="315" as="sourcePoint" />
            <mxPoint x="250" y="140" as="targetPoint" />
            <Array as="points">
              <mxPoint x="140" y="305" />
              <mxPoint x="140" y="479" />
            </Array>
          </mxGeometry>
        </mxCell>
        <mxCell id="C1Iz2HgUC4OXzYCC7fI--8" value="" style="endArrow=none;html=1;rounded=0;exitX=1;exitY=0.5;exitDx=0;exitDy=0;strokeWidth=8;strokeColor=#FFCC99;fillColor=#fff2cc;" edge="1" parent="1" source="C1Iz2HgUC4OXzYCC7fI--1" target="C1Iz2HgUC4OXzYCC7fI--12">
          <mxGeometry width="50" height="50" relative="1" as="geometry">
            <mxPoint x="390" y="420" as="sourcePoint" />
            <mxPoint x="160" y="305" as="targetPoint" />
          </mxGeometry>
        </mxCell>
        <mxCell id="C1Iz2HgUC4OXzYCC7fI--17" value="" style="endArrow=none;html=1;rounded=0;exitX=1;exitY=0.5;exitDx=0;exitDy=0;edgeStyle=orthogonalEdgeStyle;curved=1;fillColor=#f8cecc;strokeColor=#FFCCCC;strokeWidth=4;" edge="1" parent="1" source="C1Iz2HgUC4OXzYCC7fI--11">
          <mxGeometry width="50" height="50" relative="1" as="geometry">
            <mxPoint x="650" y="-111" as="sourcePoint" />
            <mxPoint x="400" y="-11" as="targetPoint" />
            <Array as="points">
              <mxPoint x="330" y="-11" />
            </Array>
          </mxGeometry>
        </mxCell>
        <mxCell id="C1Iz2HgUC4OXzYCC7fI--19" value="" style="endArrow=none;html=1;rounded=0;edgeStyle=orthogonalEdgeStyle;curved=1;strokeWidth=4;strokeColor=#FFCCCC;" edge="1" parent="1">
          <mxGeometry width="50" height="50" relative="1" as="geometry">
            <mxPoint x="330" y="59" as="sourcePoint" />
            <mxPoint x="400" y="29" as="targetPoint" />
            <Array as="points">
              <mxPoint x="330" y="29" />
            </Array>
          </mxGeometry>
        </mxCell>
        <mxCell id="C1Iz2HgUC4OXzYCC7fI--20" value="" style="endArrow=none;html=1;rounded=0;exitX=1;exitY=0.5;exitDx=0;exitDy=0;edgeStyle=orthogonalEdgeStyle;curved=1;strokeWidth=4;strokeColor=#FFCCCC;" edge="1" parent="1" source="C1Iz2HgUC4OXzYCC7fI--11">
          <mxGeometry width="50" height="50" relative="1" as="geometry">
            <mxPoint x="350" y="80" as="sourcePoint" />
            <mxPoint x="400" y="69" as="targetPoint" />
            <Array as="points">
              <mxPoint x="330" y="69" />
            </Array>
          </mxGeometry>
        </mxCell>
        <mxCell id="C1Iz2HgUC4OXzYCC7fI--21" value="" style="endArrow=none;html=1;rounded=0;edgeStyle=orthogonalEdgeStyle;curved=1;strokeColor=#FFCCCC;strokeWidth=4;" edge="1" parent="1">
          <mxGeometry width="50" height="50" relative="1" as="geometry">
            <mxPoint x="330" y="59" as="sourcePoint" />
            <mxPoint x="400" y="109" as="targetPoint" />
            <Array as="points">
              <mxPoint x="330" y="109" />
            </Array>
          </mxGeometry>
        </mxCell>
        <mxCell id="C1Iz2HgUC4OXzYCC7fI--25" value="" style="endArrow=none;html=1;rounded=0;strokeColor=#FFCCCC;strokeWidth=4;" edge="1" parent="1">
          <mxGeometry width="50" height="50" relative="1" as="geometry">
            <mxPoint x="400" y="-11" as="sourcePoint" />
            <mxPoint x="560" y="-11" as="targetPoint" />
          </mxGeometry>
        </mxCell>
        <mxCell id="C1Iz2HgUC4OXzYCC7fI--26" value="" style="endArrow=none;html=1;rounded=0;strokeColor=#FFCCCC;strokeWidth=4;" edge="1" parent="1">
          <mxGeometry width="50" height="50" relative="1" as="geometry">
            <mxPoint x="400" y="29" as="sourcePoint" />
            <mxPoint x="560" y="29" as="targetPoint" />
          </mxGeometry>
        </mxCell>
        <mxCell id="C1Iz2HgUC4OXzYCC7fI--37" value="&lt;font face=&quot;宋体&quot; style=&quot;font-size: 18px;&quot;&gt;数据库服务器：MySQL&lt;/font&gt;" style="edgeLabel;html=1;align=center;verticalAlign=middle;resizable=0;points=[];" vertex="1" connectable="0" parent="C1Iz2HgUC4OXzYCC7fI--26">
          <mxGeometry x="-0.325" y="4" relative="1" as="geometry">
            <mxPoint x="6" y="-16" as="offset" />
          </mxGeometry>
        </mxCell>
        <mxCell id="C1Iz2HgUC4OXzYCC7fI--27" value="" style="endArrow=none;html=1;rounded=0;strokeColor=#FFCCCC;strokeWidth=4;" edge="1" parent="1">
          <mxGeometry width="50" height="50" relative="1" as="geometry">
            <mxPoint x="400" y="69" as="sourcePoint" />
            <mxPoint x="560" y="69" as="targetPoint" />
          </mxGeometry>
        </mxCell>
        <mxCell id="C1Iz2HgUC4OXzYCC7fI--38" value="Web服务器：Apache" style="edgeLabel;html=1;align=center;verticalAlign=middle;resizable=0;points=[];fontSize=18;fontFamily=宋体;" vertex="1" connectable="0" parent="C1Iz2HgUC4OXzYCC7fI--27">
          <mxGeometry x="-0.475" y="-1" relative="1" as="geometry">
            <mxPoint x="36" y="-21" as="offset" />
          </mxGeometry>
        </mxCell>
        <mxCell id="C1Iz2HgUC4OXzYCC7fI--28" value="" style="endArrow=none;html=1;rounded=0;strokeColor=#FFCCCC;strokeWidth=4;" edge="1" parent="1">
          <mxGeometry width="50" height="50" relative="1" as="geometry">
            <mxPoint x="400" y="109" as="sourcePoint" />
            <mxPoint x="560" y="109" as="targetPoint" />
          </mxGeometry>
        </mxCell>
        <mxCell id="C1Iz2HgUC4OXzYCC7fI--39" value="服务器语言：Python" style="edgeLabel;html=1;align=center;verticalAlign=middle;resizable=0;points=[];fontSize=18;fontFamily=宋体;" vertex="1" connectable="0" parent="C1Iz2HgUC4OXzYCC7fI--28">
          <mxGeometry x="-0.6" y="3" relative="1" as="geometry">
            <mxPoint x="42" y="-17" as="offset" />
          </mxGeometry>
        </mxCell>
        <mxCell id="C1Iz2HgUC4OXzYCC7fI--29" value="服务器系统：Linux" style="text;html=1;align=center;verticalAlign=middle;resizable=0;points=[];autosize=1;strokeColor=none;fillColor=none;fontFamily=宋体;fontSize=18;" vertex="1" parent="1">
          <mxGeometry x="380" y="-51" width="180" height="40" as="geometry" />
        </mxCell>
        <mxCell id="C1Iz2HgUC4OXzYCC7fI--40" value="" style="endArrow=none;html=1;rounded=0;exitX=1;exitY=0.5;exitDx=0;exitDy=0;edgeStyle=orthogonalEdgeStyle;curved=1;fillColor=#f8cecc;strokeColor=#FFCC99;strokeWidth=4;" edge="1" parent="1">
          <mxGeometry width="50" height="50" relative="1" as="geometry">
            <mxPoint x="330" y="300" as="sourcePoint" />
            <mxPoint x="400" y="240" as="targetPoint" />
            <Array as="points">
              <mxPoint x="330" y="240" />
            </Array>
          </mxGeometry>
        </mxCell>
        <mxCell id="C1Iz2HgUC4OXzYCC7fI--42" value="" style="endArrow=none;html=1;rounded=0;exitX=1;exitY=0.5;exitDx=0;exitDy=0;edgeStyle=orthogonalEdgeStyle;curved=1;strokeWidth=4;strokeColor=#FFCC99;fillColor=#fff2cc;" edge="1" parent="1">
          <mxGeometry width="50" height="50" relative="1" as="geometry">
            <mxPoint x="330" y="300" as="sourcePoint" />
            <mxPoint x="400" y="320" as="targetPoint" />
            <Array as="points">
              <mxPoint x="330" y="320" />
            </Array>
          </mxGeometry>
        </mxCell>
        <mxCell id="C1Iz2HgUC4OXzYCC7fI--43" value="" style="endArrow=none;html=1;rounded=0;edgeStyle=orthogonalEdgeStyle;curved=1;strokeColor=#FFCC99;strokeWidth=4;" edge="1" parent="1">
          <mxGeometry width="50" height="50" relative="1" as="geometry">
            <mxPoint x="330" y="310" as="sourcePoint" />
            <mxPoint x="400" y="360" as="targetPoint" />
            <Array as="points">
              <mxPoint x="330" y="360" />
            </Array>
          </mxGeometry>
        </mxCell>
        <mxCell id="C1Iz2HgUC4OXzYCC7fI--44" value="" style="endArrow=none;html=1;rounded=0;strokeColor=#FFCC99;strokeWidth=4;" edge="1" parent="1">
          <mxGeometry width="50" height="50" relative="1" as="geometry">
            <mxPoint x="400" y="240" as="sourcePoint" />
            <mxPoint x="490" y="240" as="targetPoint" />
          </mxGeometry>
        </mxCell>
        <mxCell id="C1Iz2HgUC4OXzYCC7fI--47" value="" style="endArrow=none;html=1;rounded=0;strokeColor=#FFCC99;strokeWidth=4;" edge="1" parent="1">
          <mxGeometry width="50" height="50" relative="1" as="geometry">
            <mxPoint x="400" y="320" as="sourcePoint" />
            <mxPoint x="560" y="320" as="targetPoint" />
          </mxGeometry>
        </mxCell>
        <mxCell id="C1Iz2HgUC4OXzYCC7fI--48" value="数据操作：Python" style="edgeLabel;html=1;align=center;verticalAlign=middle;resizable=0;points=[];fontSize=18;fontFamily=宋体;" vertex="1" connectable="0" parent="C1Iz2HgUC4OXzYCC7fI--47">
          <mxGeometry x="-0.475" y="-1" relative="1" as="geometry">
            <mxPoint x="8" y="-16" as="offset" />
          </mxGeometry>
        </mxCell>
        <mxCell id="C1Iz2HgUC4OXzYCC7fI--49" value="" style="endArrow=none;html=1;rounded=0;strokeColor=#FFCC99;strokeWidth=4;" edge="1" parent="1">
          <mxGeometry width="50" height="50" relative="1" as="geometry">
            <mxPoint x="400" y="360" as="sourcePoint" />
            <mxPoint x="560" y="360" as="targetPoint" />
          </mxGeometry>
        </mxCell>
        <mxCell id="C1Iz2HgUC4OXzYCC7fI--50" value="路径规划：Matlab" style="edgeLabel;html=1;align=center;verticalAlign=middle;resizable=0;points=[];fontSize=18;fontFamily=宋体;" vertex="1" connectable="0" parent="C1Iz2HgUC4OXzYCC7fI--49">
          <mxGeometry x="-0.6" y="3" relative="1" as="geometry">
            <mxPoint x="18" y="-17" as="offset" />
          </mxGeometry>
        </mxCell>
        <mxCell id="C1Iz2HgUC4OXzYCC7fI--51" value="网站开发" style="text;html=1;align=center;verticalAlign=middle;resizable=0;points=[];autosize=1;strokeColor=none;fillColor=none;fontFamily=宋体;fontSize=18;" vertex="1" parent="1">
          <mxGeometry x="370" y="200" width="100" height="40" as="geometry" />
        </mxCell>
        <mxCell id="C1Iz2HgUC4OXzYCC7fI--77" value="" style="group;strokeColor=none;" vertex="1" connectable="0" parent="1">
          <mxGeometry x="490" y="185" width="140" height="90" as="geometry" />
        </mxCell>
        <mxCell id="C1Iz2HgUC4OXzYCC7fI--64" value="" style="endArrow=none;html=1;rounded=0;exitX=1;exitY=0.5;exitDx=0;exitDy=0;edgeStyle=orthogonalEdgeStyle;curved=1;fillColor=#f8cecc;strokeColor=#FFCC99;strokeWidth=4;" edge="1" parent="C1Iz2HgUC4OXzYCC7fI--77">
          <mxGeometry width="50" height="50" relative="1" as="geometry">
            <mxPoint y="55.38461538461539" as="sourcePoint" />
            <mxPoint x="42.608695652173914" y="13.846153846153847" as="targetPoint" />
            <Array as="points">
              <mxPoint y="13.846153846153847" />
            </Array>
          </mxGeometry>
        </mxCell>
        <mxCell id="C1Iz2HgUC4OXzYCC7fI--66" value="" style="endArrow=none;html=1;rounded=0;exitX=1;exitY=0.5;exitDx=0;exitDy=0;edgeStyle=orthogonalEdgeStyle;curved=1;strokeWidth=4;strokeColor=#FFCC99;" edge="1" parent="C1Iz2HgUC4OXzYCC7fI--77">
          <mxGeometry width="50" height="50" relative="1" as="geometry">
            <mxPoint y="55.38461538461539" as="sourcePoint" />
            <mxPoint x="42.608695652173914" y="55.38461538461539" as="targetPoint" />
            <Array as="points">
              <mxPoint x="24.347826086956516" y="55.38461538461539" />
              <mxPoint x="24.347826086956516" y="55.38461538461539" />
            </Array>
          </mxGeometry>
        </mxCell>
        <mxCell id="C1Iz2HgUC4OXzYCC7fI--67" value="" style="endArrow=none;html=1;rounded=0;edgeStyle=orthogonalEdgeStyle;curved=1;strokeColor=#FFCC99;strokeWidth=4;" edge="1" parent="C1Iz2HgUC4OXzYCC7fI--77">
          <mxGeometry width="50" height="50" relative="1" as="geometry">
            <mxPoint y="55.38461538461539" as="sourcePoint" />
            <mxPoint x="42.608695652173914" y="90" as="targetPoint" />
            <Array as="points">
              <mxPoint y="90" />
            </Array>
          </mxGeometry>
        </mxCell>
        <mxCell id="C1Iz2HgUC4OXzYCC7fI--68" value="" style="endArrow=none;html=1;rounded=0;strokeColor=#FFCC99;strokeWidth=4;" edge="1" parent="C1Iz2HgUC4OXzYCC7fI--77">
          <mxGeometry width="50" height="50" relative="1" as="geometry">
            <mxPoint x="42.608695652173914" y="13.846153846153847" as="sourcePoint" />
            <mxPoint x="140" y="13.846153846153847" as="targetPoint" />
          </mxGeometry>
        </mxCell>
        <mxCell id="C1Iz2HgUC4OXzYCC7fI--71" value="" style="endArrow=none;html=1;rounded=0;strokeColor=#FFCC99;strokeWidth=4;" edge="1" parent="C1Iz2HgUC4OXzYCC7fI--77">
          <mxGeometry width="50" height="50" relative="1" as="geometry">
            <mxPoint x="42.608695652173914" y="55.38461538461539" as="sourcePoint" />
            <mxPoint x="140" y="55.38461538461539" as="targetPoint" />
          </mxGeometry>
        </mxCell>
        <mxCell id="C1Iz2HgUC4OXzYCC7fI--72" value="Xshell" style="edgeLabel;html=1;align=center;verticalAlign=middle;resizable=0;points=[];fontSize=18;fontFamily=宋体;" vertex="1" connectable="0" parent="C1Iz2HgUC4OXzYCC7fI--71">
          <mxGeometry x="-0.475" y="-1" relative="1" as="geometry">
            <mxPoint x="1" y="-15" as="offset" />
          </mxGeometry>
        </mxCell>
        <mxCell id="C1Iz2HgUC4OXzYCC7fI--73" value="" style="endArrow=none;html=1;rounded=0;strokeColor=#FFCC99;strokeWidth=4;" edge="1" parent="C1Iz2HgUC4OXzYCC7fI--77">
          <mxGeometry width="50" height="50" relative="1" as="geometry">
            <mxPoint x="42.608695652173914" y="90" as="sourcePoint" />
            <mxPoint x="140" y="90" as="targetPoint" />
          </mxGeometry>
        </mxCell>
        <mxCell id="C1Iz2HgUC4OXzYCC7fI--74" value="Xftp" style="edgeLabel;html=1;align=center;verticalAlign=middle;resizable=0;points=[];fontSize=18;fontFamily=宋体;" vertex="1" connectable="0" parent="C1Iz2HgUC4OXzYCC7fI--73">
          <mxGeometry x="-0.6" y="3" relative="1" as="geometry">
            <mxPoint x="8" y="-12" as="offset" />
          </mxGeometry>
        </mxCell>
        <mxCell id="C1Iz2HgUC4OXzYCC7fI--75" value="Dreamweaver" style="text;html=1;align=center;verticalAlign=middle;resizable=0;points=[];autosize=1;strokeColor=none;fillColor=none;fontFamily=宋体;fontSize=18;" vertex="1" parent="1">
          <mxGeometry x="518.0047826086957" y="167" width="120" height="40" as="geometry" />
        </mxCell>
        <mxCell id="C1Iz2HgUC4OXzYCC7fI--78" value="" style="endArrow=none;html=1;rounded=0;exitX=1;exitY=0.5;exitDx=0;exitDy=0;edgeStyle=orthogonalEdgeStyle;curved=1;fillColor=#f8cecc;strokeColor=#CCFF99;strokeWidth=4;" edge="1" parent="1">
          <mxGeometry width="50" height="50" relative="1" as="geometry">
            <mxPoint x="330" y="491.25" as="sourcePoint" />
            <mxPoint x="400" y="442.5" as="targetPoint" />
            <Array as="points">
              <mxPoint x="330" y="442.5" />
            </Array>
          </mxGeometry>
        </mxCell>
        <mxCell id="C1Iz2HgUC4OXzYCC7fI--80" value="" style="endArrow=none;html=1;rounded=0;exitX=1;exitY=0.5;exitDx=0;exitDy=0;edgeStyle=orthogonalEdgeStyle;curved=1;strokeWidth=4;strokeColor=#CCFF99;" edge="1" parent="1">
          <mxGeometry width="50" height="50" relative="1" as="geometry">
            <mxPoint x="330" y="491.25" as="sourcePoint" />
            <mxPoint x="400" y="491" as="targetPoint" />
            <Array as="points">
              <mxPoint x="360" y="491" />
              <mxPoint x="360" y="491" />
            </Array>
          </mxGeometry>
        </mxCell>
        <mxCell id="C1Iz2HgUC4OXzYCC7fI--81" value="" style="endArrow=none;html=1;rounded=0;edgeStyle=orthogonalEdgeStyle;curved=1;strokeColor=#CCFF99;strokeWidth=4;" edge="1" parent="1">
          <mxGeometry width="50" height="50" relative="1" as="geometry">
            <mxPoint x="330" y="499.375" as="sourcePoint" />
            <mxPoint x="400" y="540" as="targetPoint" />
            <Array as="points">
              <mxPoint x="330" y="540" />
            </Array>
          </mxGeometry>
        </mxCell>
        <mxCell id="C1Iz2HgUC4OXzYCC7fI--82" value="" style="endArrow=none;html=1;rounded=0;strokeColor=#CCFF99;strokeWidth=4;" edge="1" parent="1">
          <mxGeometry width="50" height="50" relative="1" as="geometry">
            <mxPoint x="400" y="442.5" as="sourcePoint" />
            <mxPoint x="640" y="440" as="targetPoint" />
          </mxGeometry>
        </mxCell>
        <mxCell id="C1Iz2HgUC4OXzYCC7fI--85" value="" style="endArrow=none;html=1;rounded=0;strokeColor=#CCFF99;strokeWidth=4;" edge="1" parent="1">
          <mxGeometry width="50" height="50" relative="1" as="geometry">
            <mxPoint x="400" y="491" as="sourcePoint" />
            <mxPoint x="640" y="490" as="targetPoint" />
          </mxGeometry>
        </mxCell>
        <mxCell id="C1Iz2HgUC4OXzYCC7fI--86" value="地图可视化：高德开放平台API" style="edgeLabel;html=1;align=center;verticalAlign=middle;resizable=0;points=[];fontSize=18;fontFamily=宋体;" vertex="1" connectable="0" parent="C1Iz2HgUC4OXzYCC7fI--85">
          <mxGeometry x="-0.475" y="-1" relative="1" as="geometry">
            <mxPoint x="36" y="-19" as="offset" />
          </mxGeometry>
        </mxCell>
        <mxCell id="C1Iz2HgUC4OXzYCC7fI--87" value="" style="endArrow=none;html=1;rounded=0;strokeColor=#CCFF99;strokeWidth=4;" edge="1" parent="1">
          <mxGeometry width="50" height="50" relative="1" as="geometry">
            <mxPoint x="400" y="540" as="sourcePoint" />
            <mxPoint x="640" y="540" as="targetPoint" />
          </mxGeometry>
        </mxCell>
        <mxCell id="C1Iz2HgUC4OXzYCC7fI--88" value="静态网页：html" style="edgeLabel;html=1;align=center;verticalAlign=middle;resizable=0;points=[];fontSize=18;fontFamily=宋体;" vertex="1" connectable="0" parent="C1Iz2HgUC4OXzYCC7fI--87">
          <mxGeometry x="-0.6" y="3" relative="1" as="geometry">
            <mxPoint x="22" y="-13" as="offset" />
          </mxGeometry>
        </mxCell>
        <mxCell id="C1Iz2HgUC4OXzYCC7fI--89" value="网页刷新：Django" style="text;html=1;align=center;verticalAlign=middle;resizable=0;points=[];autosize=1;strokeColor=none;fillColor=none;fontFamily=宋体;fontSize=18;" vertex="1" parent="1">
          <mxGeometry x="400" y="409" width="170" height="40" as="geometry" />
        </mxCell>
      </root>
    </mxGraphModel>
  </diagram>
</mxfile>
